<mxfile host="app.diagrams.net" modified="2023-04-20T07:02:03.867Z" agent="Mozilla/5.0 (Windows NT 10.0; Win64; x64; rv:109.0) Gecko/20100101 Firefox/111.0" etag="8gtdGIxJnvy32vS9Ha7w" version="21.1.1" type="github">
  <diagram name="第 1 页" id="EVr2FbUu_5whW3HEHd_x">
    <mxGraphModel dx="1434" dy="774" grid="1" gridSize="10" guides="1" tooltips="1" connect="1" arrows="1" fold="1" page="1" pageScale="1" pageWidth="827" pageHeight="1169" math="1" shadow="0">
      <root>
        <mxCell id="0" />
        <mxCell id="1" parent="0" />
        <mxCell id="bQ_3Dq-dYB9fH8gbYfWu-5" value="" style="edgeStyle=orthogonalEdgeStyle;rounded=0;orthogonalLoop=1;jettySize=auto;html=1;" edge="1" parent="1" source="bQ_3Dq-dYB9fH8gbYfWu-1" target="bQ_3Dq-dYB9fH8gbYfWu-4">
          <mxGeometry relative="1" as="geometry" />
        </mxCell>
        <mxCell id="bQ_3Dq-dYB9fH8gbYfWu-1" value="&lt;font style=&quot;font-size: 12px;&quot;&gt;初始化神经网络参数、经验池、车辆队列和超参数等&lt;/font&gt;" style="rounded=0;whiteSpace=wrap;html=1;" vertex="1" parent="1">
          <mxGeometry x="320" y="80" width="240" height="60" as="geometry" />
        </mxCell>
        <mxCell id="bQ_3Dq-dYB9fH8gbYfWu-7" value="" style="edgeStyle=orthogonalEdgeStyle;rounded=0;orthogonalLoop=1;jettySize=auto;html=1;" edge="1" parent="1" source="bQ_3Dq-dYB9fH8gbYfWu-4" target="bQ_3Dq-dYB9fH8gbYfWu-6">
          <mxGeometry relative="1" as="geometry" />
        </mxCell>
        <mxCell id="bQ_3Dq-dYB9fH8gbYfWu-4" value="$$训练轮数e=0$$" style="rounded=0;whiteSpace=wrap;html=1;" vertex="1" parent="1">
          <mxGeometry x="320" y="160" width="240" height="60" as="geometry" />
        </mxCell>
        <mxCell id="bQ_3Dq-dYB9fH8gbYfWu-9" value="" style="edgeStyle=orthogonalEdgeStyle;rounded=0;orthogonalLoop=1;jettySize=auto;html=1;" edge="1" parent="1" source="bQ_3Dq-dYB9fH8gbYfWu-6" target="bQ_3Dq-dYB9fH8gbYfWu-8">
          <mxGeometry relative="1" as="geometry" />
        </mxCell>
        <mxCell id="bQ_3Dq-dYB9fH8gbYfWu-6" value="$$训练步长t=0$$" style="rounded=0;whiteSpace=wrap;html=1;" vertex="1" parent="1">
          <mxGeometry x="320" y="240" width="240" height="60" as="geometry" />
        </mxCell>
        <mxCell id="bQ_3Dq-dYB9fH8gbYfWu-11" value="" style="edgeStyle=orthogonalEdgeStyle;rounded=0;orthogonalLoop=1;jettySize=auto;html=1;" edge="1" parent="1" source="bQ_3Dq-dYB9fH8gbYfWu-8" target="bQ_3Dq-dYB9fH8gbYfWu-10">
          <mxGeometry relative="1" as="geometry" />
        </mxCell>
        <mxCell id="bQ_3Dq-dYB9fH8gbYfWu-8" value="$$t=t+1$$" style="rounded=0;whiteSpace=wrap;html=1;" vertex="1" parent="1">
          <mxGeometry x="320" y="320" width="240" height="60" as="geometry" />
        </mxCell>
        <mxCell id="bQ_3Dq-dYB9fH8gbYfWu-13" value="" style="edgeStyle=orthogonalEdgeStyle;rounded=0;orthogonalLoop=1;jettySize=auto;html=1;" edge="1" parent="1" source="bQ_3Dq-dYB9fH8gbYfWu-10" target="bQ_3Dq-dYB9fH8gbYfWu-12">
          <mxGeometry relative="1" as="geometry" />
        </mxCell>
        <mxCell id="bQ_3Dq-dYB9fH8gbYfWu-10" value="&lt;div&gt;$$任务车辆veh_t获取周围车辆信息$$&lt;/div&gt;&lt;div&gt;$$并将符合条件的车辆加入车辆队列tq$$&lt;/div&gt;" style="rounded=0;whiteSpace=wrap;html=1;" vertex="1" parent="1">
          <mxGeometry x="320" y="400" width="240" height="60" as="geometry" />
        </mxCell>
        <mxCell id="bQ_3Dq-dYB9fH8gbYfWu-15" value="" style="edgeStyle=orthogonalEdgeStyle;rounded=0;orthogonalLoop=1;jettySize=auto;html=1;" edge="1" parent="1" source="bQ_3Dq-dYB9fH8gbYfWu-12" target="bQ_3Dq-dYB9fH8gbYfWu-14">
          <mxGeometry relative="1" as="geometry" />
        </mxCell>
        <mxCell id="bQ_3Dq-dYB9fH8gbYfWu-12" value="&lt;div&gt;$$veh_t依据tq中的车辆信息和任务需求等$$&lt;/div&gt;&lt;div&gt;$$得到环境状态s_{dqn}(t)$$&lt;/div&gt;" style="rounded=0;whiteSpace=wrap;html=1;" vertex="1" parent="1">
          <mxGeometry x="320" y="480" width="240" height="60" as="geometry" />
        </mxCell>
        <mxCell id="bQ_3Dq-dYB9fH8gbYfWu-17" value="" style="edgeStyle=orthogonalEdgeStyle;rounded=0;orthogonalLoop=1;jettySize=auto;html=1;" edge="1" parent="1" source="bQ_3Dq-dYB9fH8gbYfWu-14" target="bQ_3Dq-dYB9fH8gbYfWu-16">
          <mxGeometry relative="1" as="geometry" />
        </mxCell>
        <mxCell id="bQ_3Dq-dYB9fH8gbYfWu-14" value="&lt;div&gt;$$s_{dqn}(t)输入到DQN算法的神经网络$$&lt;/div&gt;&lt;div&gt;$$输出当前任务的卸载目标车辆集合a_{dqn}(t)$$&lt;br&gt;&lt;/div&gt;" style="rounded=0;whiteSpace=wrap;html=1;" vertex="1" parent="1">
          <mxGeometry x="320" y="555" width="240" height="60" as="geometry" />
        </mxCell>
        <mxCell id="bQ_3Dq-dYB9fH8gbYfWu-19" value="" style="edgeStyle=orthogonalEdgeStyle;rounded=0;orthogonalLoop=1;jettySize=auto;html=1;" edge="1" parent="1" source="bQ_3Dq-dYB9fH8gbYfWu-16" target="bQ_3Dq-dYB9fH8gbYfWu-18">
          <mxGeometry relative="1" as="geometry" />
        </mxCell>
        <mxCell id="bQ_3Dq-dYB9fH8gbYfWu-16" value="&lt;div&gt;$$veh_t依据a_{dqn}(t)和任务需求等$$&lt;/div&gt;&lt;div&gt;$$得到环境状态s(t)$$&lt;br&gt;&lt;/div&gt;" style="rounded=0;whiteSpace=wrap;html=1;" vertex="1" parent="1">
          <mxGeometry x="320" y="630" width="240" height="60" as="geometry" />
        </mxCell>
        <mxCell id="bQ_3Dq-dYB9fH8gbYfWu-21" value="" style="edgeStyle=orthogonalEdgeStyle;rounded=0;orthogonalLoop=1;jettySize=auto;html=1;" edge="1" parent="1" source="bQ_3Dq-dYB9fH8gbYfWu-18" target="bQ_3Dq-dYB9fH8gbYfWu-20">
          <mxGeometry relative="1" as="geometry" />
        </mxCell>
        <mxCell id="bQ_3Dq-dYB9fH8gbYfWu-18" value="&lt;div&gt;&lt;br&gt;&lt;/div&gt;&lt;div&gt;$$s(t)输入到DDPG算法的Actor网络$$&lt;/div&gt;&lt;div&gt;$$得到卸载决策a(t)$$&lt;br&gt;&lt;/div&gt;" style="rounded=0;whiteSpace=wrap;html=1;" vertex="1" parent="1">
          <mxGeometry x="320" y="710" width="240" height="60" as="geometry" />
        </mxCell>
        <mxCell id="bQ_3Dq-dYB9fH8gbYfWu-23" value="" style="edgeStyle=orthogonalEdgeStyle;rounded=0;orthogonalLoop=1;jettySize=auto;html=1;" edge="1" parent="1" source="bQ_3Dq-dYB9fH8gbYfWu-20" target="bQ_3Dq-dYB9fH8gbYfWu-22">
          <mxGeometry relative="1" as="geometry" />
        </mxCell>
        <mxCell id="bQ_3Dq-dYB9fH8gbYfWu-20" value="&lt;div&gt;&lt;br&gt;&lt;/div&gt;&lt;div&gt;$$veh_t执行动作a_{dqn}(t)和a(t)$$&lt;/div&gt;&lt;div&gt;$$得到奖励r_{dqn}(t),环境进入新状态$$&lt;br&gt;&lt;/div&gt;" style="rounded=0;whiteSpace=wrap;html=1;" vertex="1" parent="1">
          <mxGeometry x="320" y="790" width="240" height="60" as="geometry" />
        </mxCell>
        <mxCell id="bQ_3Dq-dYB9fH8gbYfWu-25" value="" style="edgeStyle=orthogonalEdgeStyle;rounded=0;orthogonalLoop=1;jettySize=auto;html=1;" edge="1" parent="1" source="bQ_3Dq-dYB9fH8gbYfWu-22" target="bQ_3Dq-dYB9fH8gbYfWu-24">
          <mxGeometry relative="1" as="geometry" />
        </mxCell>
        <mxCell id="bQ_3Dq-dYB9fH8gbYfWu-22" value="&lt;div&gt;&lt;br&gt;&lt;/div&gt;&lt;div&gt;$$veh_t执行动作a_{dqn}(t)和a(t),$$&lt;/div&gt;&lt;div&gt;$$得到奖励r(t),环境进入新状态$$&lt;br&gt;&lt;/div&gt;" style="rounded=0;whiteSpace=wrap;html=1;" vertex="1" parent="1">
          <mxGeometry x="320" y="870" width="240" height="60" as="geometry" />
        </mxCell>
        <mxCell id="bQ_3Dq-dYB9fH8gbYfWu-31" value="" style="edgeStyle=orthogonalEdgeStyle;rounded=0;orthogonalLoop=1;jettySize=auto;html=1;" edge="1" parent="1" source="bQ_3Dq-dYB9fH8gbYfWu-24" target="bQ_3Dq-dYB9fH8gbYfWu-30">
          <mxGeometry relative="1" as="geometry" />
        </mxCell>
        <mxCell id="bQ_3Dq-dYB9fH8gbYfWu-24" value="&lt;div&gt;&lt;br&gt;&lt;/div&gt;&lt;div&gt;$$veh_t依据周围车辆信息更新队列tq,$$&lt;/div&gt;&lt;div&gt;$$并得到新状态s_{dqn}(t+1)$$&lt;br&gt;&lt;/div&gt;" style="rounded=0;whiteSpace=wrap;html=1;" vertex="1" parent="1">
          <mxGeometry x="320" y="950" width="240" height="60" as="geometry" />
        </mxCell>
        <mxCell id="bQ_3Dq-dYB9fH8gbYfWu-46" value="" style="edgeStyle=orthogonalEdgeStyle;rounded=0;orthogonalLoop=1;jettySize=auto;html=1;" edge="1" parent="1" source="bQ_3Dq-dYB9fH8gbYfWu-27" target="bQ_3Dq-dYB9fH8gbYfWu-36">
          <mxGeometry relative="1" as="geometry" />
        </mxCell>
        <mxCell id="bQ_3Dq-dYB9fH8gbYfWu-27" value="&lt;br&gt;&lt;div&gt;$$s_{dqn}(t) \leftarrow s_{dqn}(t+1)$$&lt;br&gt;&lt;/div&gt;" style="rounded=0;whiteSpace=wrap;html=1;" vertex="1" parent="1">
          <mxGeometry x="320" y="1100" width="240" height="60" as="geometry" />
        </mxCell>
        <mxCell id="bQ_3Dq-dYB9fH8gbYfWu-32" value="" style="edgeStyle=orthogonalEdgeStyle;rounded=0;orthogonalLoop=1;jettySize=auto;html=1;" edge="1" parent="1" source="bQ_3Dq-dYB9fH8gbYfWu-30" target="bQ_3Dq-dYB9fH8gbYfWu-27">
          <mxGeometry relative="1" as="geometry" />
        </mxCell>
        <mxCell id="bQ_3Dq-dYB9fH8gbYfWu-30" value="&lt;div&gt;&lt;br&gt;&lt;/div&gt;&lt;div&gt;$$&amp;lt;s_{dqn}(t).a_{dqn}(t),r(t),s_{dqn}(t+1)&amp;gt;$$&lt;/div&gt;&lt;div&gt;$$存入到DQN算法的经验池$$&lt;/div&gt;&lt;div&gt;&lt;br&gt;&lt;/div&gt;" style="rounded=0;whiteSpace=wrap;html=1;" vertex="1" parent="1">
          <mxGeometry x="320" y="1030" width="240" height="50" as="geometry" />
        </mxCell>
        <mxCell id="bQ_3Dq-dYB9fH8gbYfWu-42" value="" style="edgeStyle=orthogonalEdgeStyle;rounded=0;orthogonalLoop=1;jettySize=auto;html=1;" edge="1" parent="1" source="bQ_3Dq-dYB9fH8gbYfWu-36" target="bQ_3Dq-dYB9fH8gbYfWu-41">
          <mxGeometry relative="1" as="geometry" />
        </mxCell>
        <mxCell id="bQ_3Dq-dYB9fH8gbYfWu-36" value="&lt;div&gt;$$s_{dqn}(t)输入到DQN算法的神经网络$$&lt;/div&gt;&lt;div&gt;$$输出卸载目标车辆集合a_{dqn}(t)$$&lt;/div&gt;&lt;div&gt;$$veh_t得到环境状态s(t)$$&lt;br&gt;&lt;/div&gt;" style="rounded=0;whiteSpace=wrap;html=1;" vertex="1" parent="1">
          <mxGeometry x="320" y="1180" width="240" height="90" as="geometry" />
        </mxCell>
        <mxCell id="bQ_3Dq-dYB9fH8gbYfWu-44" value="" style="edgeStyle=orthogonalEdgeStyle;rounded=0;orthogonalLoop=1;jettySize=auto;html=1;" edge="1" parent="1" source="bQ_3Dq-dYB9fH8gbYfWu-41" target="bQ_3Dq-dYB9fH8gbYfWu-43">
          <mxGeometry relative="1" as="geometry" />
        </mxCell>
        <mxCell id="bQ_3Dq-dYB9fH8gbYfWu-53" style="edgeStyle=orthogonalEdgeStyle;rounded=0;orthogonalLoop=1;jettySize=auto;html=1;exitX=0;exitY=0.5;exitDx=0;exitDy=0;entryX=0;entryY=0.5;entryDx=0;entryDy=0;" edge="1" parent="1" source="bQ_3Dq-dYB9fH8gbYfWu-41" target="bQ_3Dq-dYB9fH8gbYfWu-52">
          <mxGeometry relative="1" as="geometry">
            <Array as="points">
              <mxPoint x="290" y="1330" />
              <mxPoint x="290" y="1590" />
            </Array>
          </mxGeometry>
        </mxCell>
        <mxCell id="bQ_3Dq-dYB9fH8gbYfWu-41" value="&lt;font face=&quot;宋体&quot;&gt;经验池已满&lt;/font&gt;？" style="rhombus;whiteSpace=wrap;html=1;" vertex="1" parent="1">
          <mxGeometry x="345" y="1290" width="190" height="80" as="geometry" />
        </mxCell>
        <mxCell id="bQ_3Dq-dYB9fH8gbYfWu-49" value="" style="edgeStyle=orthogonalEdgeStyle;rounded=0;orthogonalLoop=1;jettySize=auto;html=1;" edge="1" parent="1" source="bQ_3Dq-dYB9fH8gbYfWu-43" target="bQ_3Dq-dYB9fH8gbYfWu-48">
          <mxGeometry relative="1" as="geometry" />
        </mxCell>
        <mxCell id="bQ_3Dq-dYB9fH8gbYfWu-43" value="DQN算法从经验池中抽取一批经验，通过最小化公式(1)更新网络参数。" style="whiteSpace=wrap;html=1;" vertex="1" parent="1">
          <mxGeometry x="320" y="1390" width="240" height="60" as="geometry" />
        </mxCell>
        <mxCell id="bQ_3Dq-dYB9fH8gbYfWu-45" value="是" style="text;html=1;align=center;verticalAlign=middle;resizable=0;points=[];autosize=1;strokeColor=none;fillColor=none;" vertex="1" parent="1">
          <mxGeometry x="394" y="1360" width="40" height="30" as="geometry" />
        </mxCell>
        <mxCell id="bQ_3Dq-dYB9fH8gbYfWu-59" value="" style="edgeStyle=orthogonalEdgeStyle;rounded=0;orthogonalLoop=1;jettySize=auto;html=1;" edge="1" parent="1" source="bQ_3Dq-dYB9fH8gbYfWu-48" target="bQ_3Dq-dYB9fH8gbYfWu-52">
          <mxGeometry relative="1" as="geometry" />
        </mxCell>
        <mxCell id="bQ_3Dq-dYB9fH8gbYfWu-48" value="DDPG算法从经验池中抽取一批经验，通过最小化公式(2)更新Critic网络的参数，通过公式(3)梯度上升更新Actor网络的参数，通过公式(4)(5)更新目标网络的参数。" style="whiteSpace=wrap;html=1;" vertex="1" parent="1">
          <mxGeometry x="320" y="1470" width="240" height="60" as="geometry" />
        </mxCell>
        <mxCell id="bQ_3Dq-dYB9fH8gbYfWu-55" style="edgeStyle=orthogonalEdgeStyle;rounded=0;orthogonalLoop=1;jettySize=auto;html=1;entryX=1;entryY=0.5;entryDx=0;entryDy=0;" edge="1" parent="1" source="bQ_3Dq-dYB9fH8gbYfWu-52" target="bQ_3Dq-dYB9fH8gbYfWu-18">
          <mxGeometry relative="1" as="geometry">
            <Array as="points">
              <mxPoint x="590" y="1590" />
              <mxPoint x="590" y="740" />
            </Array>
          </mxGeometry>
        </mxCell>
        <mxCell id="bQ_3Dq-dYB9fH8gbYfWu-58" value="" style="edgeStyle=orthogonalEdgeStyle;rounded=0;orthogonalLoop=1;jettySize=auto;html=1;" edge="1" parent="1" source="bQ_3Dq-dYB9fH8gbYfWu-52" target="bQ_3Dq-dYB9fH8gbYfWu-57">
          <mxGeometry relative="1" as="geometry" />
        </mxCell>
        <mxCell id="bQ_3Dq-dYB9fH8gbYfWu-52" value="$$t&amp;gt;T？$$" style="rhombus;whiteSpace=wrap;html=1;" vertex="1" parent="1">
          <mxGeometry x="345" y="1550" width="190" height="80" as="geometry" />
        </mxCell>
        <mxCell id="bQ_3Dq-dYB9fH8gbYfWu-54" value="否" style="text;html=1;align=center;verticalAlign=middle;resizable=0;points=[];autosize=1;strokeColor=none;fillColor=none;" vertex="1" parent="1">
          <mxGeometry x="300" y="1325" width="40" height="30" as="geometry" />
        </mxCell>
        <mxCell id="bQ_3Dq-dYB9fH8gbYfWu-56" value="否" style="text;html=1;align=center;verticalAlign=middle;resizable=0;points=[];autosize=1;strokeColor=none;fillColor=none;" vertex="1" parent="1">
          <mxGeometry x="535" y="1560" width="40" height="30" as="geometry" />
        </mxCell>
        <mxCell id="bQ_3Dq-dYB9fH8gbYfWu-62" value="" style="edgeStyle=orthogonalEdgeStyle;rounded=0;orthogonalLoop=1;jettySize=auto;html=1;" edge="1" parent="1" source="bQ_3Dq-dYB9fH8gbYfWu-57" target="bQ_3Dq-dYB9fH8gbYfWu-61">
          <mxGeometry relative="1" as="geometry" />
        </mxCell>
        <mxCell id="bQ_3Dq-dYB9fH8gbYfWu-69" style="edgeStyle=orthogonalEdgeStyle;rounded=0;orthogonalLoop=1;jettySize=auto;html=1;entryX=1;entryY=0.5;entryDx=0;entryDy=0;" edge="1" parent="1" source="bQ_3Dq-dYB9fH8gbYfWu-57" target="bQ_3Dq-dYB9fH8gbYfWu-67">
          <mxGeometry relative="1" as="geometry">
            <Array as="points">
              <mxPoint x="560" y="1690" />
              <mxPoint x="560" y="1870" />
            </Array>
          </mxGeometry>
        </mxCell>
        <mxCell id="bQ_3Dq-dYB9fH8gbYfWu-57" value="$$e&amp;gt;E？$$" style="rhombus;whiteSpace=wrap;html=1;" vertex="1" parent="1">
          <mxGeometry x="345" y="1650" width="190" height="80" as="geometry" />
        </mxCell>
        <mxCell id="bQ_3Dq-dYB9fH8gbYfWu-60" value="是" style="text;html=1;align=center;verticalAlign=middle;resizable=0;points=[];autosize=1;strokeColor=none;fillColor=none;" vertex="1" parent="1">
          <mxGeometry x="430" y="1625" width="40" height="30" as="geometry" />
        </mxCell>
        <mxCell id="bQ_3Dq-dYB9fH8gbYfWu-64" style="edgeStyle=orthogonalEdgeStyle;rounded=0;orthogonalLoop=1;jettySize=auto;html=1;" edge="1" parent="1" source="bQ_3Dq-dYB9fH8gbYfWu-61" target="bQ_3Dq-dYB9fH8gbYfWu-6">
          <mxGeometry relative="1" as="geometry">
            <Array as="points">
              <mxPoint x="270" y="1790" />
              <mxPoint x="270" y="270" />
            </Array>
          </mxGeometry>
        </mxCell>
        <mxCell id="bQ_3Dq-dYB9fH8gbYfWu-61" value="$$e=e+1$$" style="whiteSpace=wrap;html=1;" vertex="1" parent="1">
          <mxGeometry x="355" y="1754" width="170" height="60" as="geometry" />
        </mxCell>
        <mxCell id="bQ_3Dq-dYB9fH8gbYfWu-63" value="否" style="text;html=1;align=center;verticalAlign=middle;resizable=0;points=[];autosize=1;strokeColor=none;fillColor=none;" vertex="1" parent="1">
          <mxGeometry x="430" y="1725" width="40" height="30" as="geometry" />
        </mxCell>
        <mxCell id="bQ_3Dq-dYB9fH8gbYfWu-67" value="$$算法结束$$" style="whiteSpace=wrap;html=1;" vertex="1" parent="1">
          <mxGeometry x="355" y="1840" width="170" height="60" as="geometry" />
        </mxCell>
        <mxCell id="bQ_3Dq-dYB9fH8gbYfWu-70" value="是" style="text;html=1;align=center;verticalAlign=middle;resizable=0;points=[];autosize=1;strokeColor=none;fillColor=none;" vertex="1" parent="1">
          <mxGeometry x="530" y="1665" width="40" height="30" as="geometry" />
        </mxCell>
      </root>
    </mxGraphModel>
  </diagram>
</mxfile>
